<svg viewBox="0 0 600 800" xmlns="http://www.w3.org/2000/svg">
  <rect width="600" height="800" fill="#F0ECE3"/>
  <rect x="24" y="24" width="552" height="752" fill="none" stroke="#D9D2C3" stroke-width="1"/>
  <path d="M 300 180
           C 420 180, 480 260, 480 350
           C 480 420, 430 440, 390 420
           C 365 408, 370 380, 395 375
           C 415 371, 415 350, 395 348
           C 220 340, 120 300, 120 380
           C 120 470, 200 520, 300 520
           C 400 520, 480 460, 480 380"
        fill="#F7F4ED" stroke="#1C1B17" stroke-width="3" stroke-linejoin="round"/>
  <circle cx="200" cy="260" r="16" fill="#92402F"/>
  <circle cx="270" cy="225" r="16" fill="#24433A"/>
  <circle cx="345" cy="235" r="16" fill="#B8893E"/>
  <circle cx="220" cy="330" r="16" fill="#2B3344"/>
  <path d="M 380 460 L 470 610 L 500 640 L 470 660 L 440 630 L 350 490 Z" fill="#F7F4ED" stroke="#1C1B17" stroke-width="3" stroke-linejoin="round"/>
  <text x="300" y="752" text-anchor="middle" font-family="ui-monospace, monospace" font-size="13" letter-spacing="2" fill="#6B6555">BUYNEST — ART &amp; CRAFT</text>
</svg>
