<svg viewBox="0 0 600 800" xmlns="http://www.w3.org/2000/svg">
  <rect width="600" height="800" fill="#F0ECE3"/>
  <rect x="24" y="24" width="552" height="752" fill="none" stroke="#D9D2C3" stroke-width="1"/>
  <path d="M 230 130 C 230 90, 370 90, 370 130 C 370 150, 340 150, 320 175 L 280 175 C 260 150, 230 150, 230 130 Z"
        fill="#F7F4ED" stroke="#1C1B17" stroke-width="3" stroke-linejoin="round"/>
  <path d="M 215 175
           C 190 175, 172 205, 172 240
           L 162 610
           C 162 656, 196 680, 238 680
           L 362 680
           C 404 680, 438 656, 438 610
           L 428 240
           C 428 205, 410 175, 385 175
           L 320 175 C 320 195, 280 195, 280 175 Z"
        fill="#F7F4ED" stroke="#1C1B17" stroke-width="3" stroke-linejoin="round"/>
  <path d="M 172 240 L 70 280 L 58 446 L 146 460 L 162 304 Z" fill="#F7F4ED" stroke="#1C1B17" stroke-width="3" stroke-linejoin="round"/>
  <path d="M 428 240 L 530 280 L 542 446 L 454 460 L 438 304 Z" fill="#F7F4ED" stroke="#1C1B17" stroke-width="3" stroke-linejoin="round"/>
  <path d="M 230 420 C 260 460, 340 460, 370 420 L 370 540 C 340 575, 260 575, 230 540 Z"
        fill="none" stroke="#1C1B17" stroke-width="2.5"/>
  <line x1="284" y1="200" x2="276" y2="290" stroke="#24433A" stroke-width="2"/>
  <line x1="316" y1="200" x2="324" y2="290" stroke="#24433A" stroke-width="2"/>
  <circle cx="276" cy="292" r="3.5" fill="#24433A"/>
  <circle cx="324" cy="292" r="3.5" fill="#24433A"/>
  <text x="300" y="752" text-anchor="middle" font-family="ui-monospace, monospace" font-size="13" letter-spacing="2" fill="#6B6555">BUYNEST — HOODIE</text>
</svg>
