<svg viewBox="0 0 600 800" xmlns="http://www.w3.org/2000/svg">
  <rect width="600" height="800" fill="#F0ECE3"/>
  <rect x="24" y="24" width="552" height="752" fill="none" stroke="#D9D2C3" stroke-width="1"/>
  <path d="M 350 120 L 300 175 L 250 120 L 282 92 L 318 92 Z" fill="#F7F4ED" stroke="#1C1B17" stroke-width="3"/>
  <path d="M 222 152
           C 198 152, 178 184, 178 222
           L 168 612
           C 168 656, 200 678, 240 678
           L 360 678
           C 400 678, 432 656, 432 612
           L 422 222
           C 422 184, 402 152, 378 152
           L 350 120 L 300 175 L 250 120 Z"
        fill="#F7F4ED" stroke="#1C1B17" stroke-width="3" stroke-linejoin="round"/>
  <path d="M 178 222 L 76 268 L 64 432 L 150 446 L 168 286 Z" fill="#F7F4ED" stroke="#1C1B17" stroke-width="3" stroke-linejoin="round"/>
  <path d="M 422 222 L 524 268 L 536 432 L 450 446 L 432 286 Z" fill="#F7F4ED" stroke="#1C1B17" stroke-width="3" stroke-linejoin="round"/>
  <line x1="300" y1="178" x2="300" y2="654" stroke="#24433A" stroke-width="1.5" stroke-dasharray="7 7"/>
  <circle cx="300" cy="238" r="4" fill="#24433A"/>
  <circle cx="300" cy="318" r="4" fill="#24433A"/>
  <circle cx="300" cy="398" r="4" fill="#24433A"/>
  <circle cx="300" cy="478" r="4" fill="#24433A"/>
  <circle cx="300" cy="558" r="4" fill="#24433A"/>
  <path d="M 178 222 C 220 240, 380 240, 422 222" fill="none" stroke="#1C1B17" stroke-width="1.5" opacity="0.4"/>
  <text x="300" y="752" text-anchor="middle" font-family="ui-monospace, monospace" font-size="13" letter-spacing="2" fill="#6B6555">BUYNEST — SHIRT</text>
</svg>
